<svg width="43" height="38" viewBox="0 0 43 38" fill="none" xmlns="http://www.w3.org/2000/svg">
<mask id="mask0_722_83" style="mask-type:alpha" maskUnits="userSpaceOnUse" x="0" y="0" width="43" height="38">
<path d="M19.0866 0.133043C9.17648 1.09413 1.20533 8.20615 0.128145 16.8559C-0.949037 25.8901 4.86775 33.9632 13.7006 37.0387C14.347 37.2309 14.9933 36.8465 14.9933 36.0776V33.0021C14.9933 33.0021 14.1315 33.1943 13.0543 33.1943C10.0382 33.1943 8.7456 30.8877 8.53017 29.5422C8.31473 28.7734 7.88386 28.1967 7.23755 27.6201C6.59124 27.4278 6.3758 27.4278 6.3758 27.2356C6.3758 26.8512 7.02211 26.8512 7.23755 26.8512C8.53017 26.8512 9.60735 28.1967 10.0382 28.7734C11.1154 30.3111 12.408 30.6955 13.0543 30.6955C13.9161 30.6955 14.5624 30.5033 14.9933 30.3111C15.2087 28.9656 15.855 27.6201 17.1476 26.8512C12.1926 25.8901 8.53017 23.3913 8.53017 19.1625C8.53017 17.0481 9.60735 14.9337 11.1154 13.396C10.9 13.0116 10.6845 12.0505 10.6845 10.705C10.6845 9.9361 10.6845 8.7828 11.3308 7.6295C11.3308 7.6295 14.347 7.6295 17.3631 10.1283C18.4402 9.74389 19.9483 9.55167 21.4564 9.55167C22.9644 9.55167 24.4725 9.74389 25.7651 10.1283C28.5658 7.6295 31.7973 7.6295 31.7973 7.6295C32.2282 8.7828 32.2282 9.9361 32.2282 10.705C32.2282 12.2427 32.0127 13.0116 31.7973 13.396C33.3054 14.9337 34.3825 16.8559 34.3825 19.1625C34.3825 23.3913 30.7201 25.8901 25.7651 26.8512C27.0577 27.8123 27.9194 29.5422 27.9194 31.2722V36.2698C27.9194 36.8465 28.5658 37.4231 29.4275 37.2309C37.3987 34.3476 43 27.4278 43 19.3547C43 7.82172 32.0127 -1.21247 19.0866 0.133043Z" fill="black"/>
</mask>
<g mask="url(#mask0_722_83)">
<rect x="-17.3511" y="-26" width="86.7544" height="95" fill="#D9D9D9"/>
</g>
</svg>
