<svg width="43" height="37" viewBox="0 0 43 37" fill="none" xmlns="http://www.w3.org/2000/svg">
<mask id="mask0_722_84" style="mask-type:alpha" maskUnits="userSpaceOnUse" x="0" y="0" width="43" height="37">
<path d="M4.77778 0C2.13806 0 0 1.81526 0 4.05645V32.4516C0 34.6928 2.13806 36.508 4.77778 36.508H38.2222C40.8619 36.508 43 34.6928 43 32.4516V4.05645C43 1.81526 40.8619 0 38.2222 0H4.77778ZM4.77778 4.05645H38.2222V32.4516H4.77778V4.05645ZM11.4172 6.72641C9.36993 6.72641 8.14182 7.7713 8.14182 9.16266C8.14182 10.554 9.37008 11.5949 11.2119 11.5949C13.2592 11.5949 14.4873 10.554 14.4873 9.16266C14.4873 7.7713 13.259 6.72641 11.4172 6.72641ZM8.30512 14.1976V28.3951H14.3333V14.1976H8.30512ZM19.3071 14.1976V28.3951H25.3353V20.6348C25.3353 18.3246 27.2766 17.9926 27.8595 17.9926C28.4424 17.9926 30.0011 18.4889 30.0011 20.6348V28.3951H35.8333V20.6348C35.8333 16.1788 33.5011 14.1976 30.5843 14.1976C27.6675 14.1976 26.1117 15.0222 25.3353 16.1782V14.1976H19.3071Z" fill="black"/>
</mask>
<g mask="url(#mask0_722_84)">
<rect x="-7.74023" y="-13" width="62.78" height="64" fill="#D9D9D9"/>
</g>
</svg>
