<svg width="145" height="203" viewBox="0 0 145 203" fill="none" xmlns="http://www.w3.org/2000/svg">
<path d="M0 203V146.611C0 140.408 1.77474 135.098 5.32422 130.681C8.8737 126.264 13.1406 124.056 18.125 124.056H126.875C131.859 124.056 136.126 126.264 139.676 130.681C143.225 135.098 145 140.408 145 146.611V203H0ZM45.3125 112.778C32.776 112.778 22.0898 107.28 13.2539 96.284C4.41797 85.2882 0 71.9898 0 56.3889C0 40.788 4.41797 27.4896 13.2539 16.4938C22.0898 5.49792 32.776 0 45.3125 0H99.6875C112.224 0 122.91 5.49792 131.746 16.4938C140.582 27.4896 145 40.788 145 56.3889C145 71.9898 140.582 85.2882 131.746 96.284C122.91 107.28 112.224 112.778 99.6875 112.778H45.3125ZM18.125 180.444H126.875V146.611H18.125V180.444ZM45.3125 90.2222H99.6875C107.24 90.2222 113.659 86.9329 118.945 80.3542C124.232 73.7755 126.875 65.787 126.875 56.3889C126.875 46.9907 124.232 39.0023 118.945 32.4236C113.659 25.8449 107.24 22.5556 99.6875 22.5556H45.3125C37.7604 22.5556 31.3411 25.8449 26.0547 32.4236C20.7682 39.0023 18.125 46.9907 18.125 56.3889C18.125 65.787 20.7682 73.7755 26.0547 80.3542C31.3411 86.9329 37.7604 90.2222 45.3125 90.2222ZM45.3125 67.6667C47.8802 67.6667 50.0326 66.5859 51.7695 64.4243C53.5065 62.2627 54.375 59.5843 54.375 56.3889C54.375 53.1935 53.5065 50.515 51.7695 48.3535C50.0326 46.1919 47.8802 45.1111 45.3125 45.1111C42.7448 45.1111 40.5924 46.1919 38.8555 48.3535C37.1185 50.515 36.25 53.1935 36.25 56.3889C36.25 59.5843 37.1185 62.2627 38.8555 64.4243C40.5924 66.5859 42.7448 67.6667 45.3125 67.6667ZM99.6875 67.6667C102.255 67.6667 104.408 66.5859 106.145 64.4243C107.882 62.2627 108.75 59.5843 108.75 56.3889C108.75 53.1935 107.882 50.515 106.145 48.3535C104.408 46.1919 102.255 45.1111 99.6875 45.1111C97.1198 45.1111 94.9674 46.1919 93.2305 48.3535C91.4935 50.515 90.625 53.1935 90.625 56.3889C90.625 59.5843 91.4935 62.2627 93.2305 64.4243C94.9674 66.5859 97.1198 67.6667 99.6875 67.6667Z" fill="#5665C0"/>
</svg>
